<?xml version="1.0" encoding="utf-8"?>
<svg width="900pt" height="900pt" viewBox="0 0 900 900" xmlns="http://www.w3.org/2000/svg" xmlns:bx="https://boxy-svg.com">
  <defs>
    <linearGradient id="gradient-7" gradientUnits="userSpaceOnUse" x1="394.245" y1="453.032" x2="394.245" y2="767.008" gradientTransform="matrix(0.927372, -0.000002, 0.000002, 0.785462, 37.016622, 110.37957)">
      <stop style="stop-color: rgb(115, 35, 165);" offset="0"/>
      <stop style="stop-color: rgb(56, 17, 81);" offset="1"/>
    </linearGradient>
    <linearGradient id="gradient-8" gradientUnits="userSpaceOnUse" x1="222.605" y1="404.859" x2="222.605" y2="548.834" gradientTransform="matrix(0.767574, 0.06401, -0.089998, 1.079232, 122.060729, -52.542131)">
      <stop style="stop-color: rgb(115, 35, 165);" offset="0"/>
      <stop style="stop-color: rgb(56, 17, 81);" offset="1"/>
    </linearGradient>
    <linearGradient id="gradient-9" gradientUnits="userSpaceOnUse" x1="630.913" y1="388.265" x2="630.913" y2="702.186" gradientTransform="matrix(0.857926, 0, -0.000001, 0.812903, 61.749018, 91.083393)">
      <stop style="stop-color: rgb(115, 35, 165);" offset="0"/>
      <stop style="stop-color: rgb(56, 17, 81);" offset="1"/>
    </linearGradient>
    <linearGradient id="gradient-10" gradientUnits="userSpaceOnUse" x1="689.484" y1="263.341" x2="689.484" y2="407.288" gradientTransform="matrix(0.816981, 0, -0.000001, 0.873752, 111.313052, 51.42414)">
      <stop style="stop-color: rgb(115, 35, 165);" offset="0"/>
      <stop style="stop-color: rgb(56, 17, 81);" offset="1"/>
    </linearGradient>
    <linearGradient id="gradient-11" gradientUnits="userSpaceOnUse" x1="427.383" y1="94.004" x2="427.383" y2="501.088" gradientTransform="matrix(0.999991, -0.00444, 0.003982, 0.896991, 9.116952, 75.062035)">
      <stop style="stop-color: rgb(115, 35, 165);" offset="0"/>
      <stop style="stop-color: rgb(56, 17, 81);" offset="1"/>
    </linearGradient>
  </defs>
  <path d="M 434.542 159.056 C 438.934 157.485 442.279 160.731 443.311 164.024 C 462.618 214.129 482.148 264.2 501.526 314.306 C 503.867 320.504 504.355 327.077 503.895 333.546 C 503.407 342.311 498.988 350.408 496.075 358.728 C 478.594 403.443 460.862 448.099 443.548 492.873 C 442.196 495.404 441.011 499.67 436.857 499.448 C 432.703 499.67 431.532 495.393 430.165 492.873 C 412.852 448.111 395.106 403.455 377.652 358.728 C 374.725 350.419 370.292 342.323 369.818 333.546 C 369.386 327.394 369.776 321.137 371.867 315.219 C 391.16 265.078 410.83 215.032 430.026 164.867 C 431.057 162.735 431.991 160.239 434.542 159.056 Z" style="fill: url(#gradient-11); stroke-linecap: butt;" transform="matrix(0.956305, -0.292371, 0.292371, 0.956305, -76.977505, 142.085516)" bx:origin="0.5 0.5"/>
  <path d="M 310.811 399.913 C 316.352 399.55 321.956 398.643 327.486 399.561 C 330.997 400.217 333.327 404.457 333.22 408.459 C 333.112 413.366 331.384 417.922 330.138 422.539 C 321.452 453.883 312.422 485.104 303.671 516.436 C 302.372 520.538 301.093 525.81 297.035 527.156 C 293.169 528.604 289.272 526.427 286.362 523.533 C 254.73 492.666 223.066 461.838 191.572 430.782 C 188.137 427.233 184.185 424.264 181.307 420.048 C 179.654 417.695 180.406 413.341 183.101 412.587 C 187.89 411.114 192.883 411.227 197.79 410.736 C 235.457 406.986 273.133 403.488 310.811 399.913 Z" style="fill: url(#gradient-8);" transform="matrix(0.970296, -0.241921, 0.241921, 0.970296, -104.541444, 75.821938)" bx:origin="0.5 0.5"/>
  <path d="M 598.791 282.809 C 604.702 281.519 610.784 282.542 616.752 282.773 C 645.669 285.55 674.642 287.658 703.558 290.41 C 718.17 291.677 732.771 293.077 747.394 294.076 C 750.218 294.539 754.091 294.417 755.469 297.693 C 756.449 300.605 754.478 303.187 752.576 305.002 C 715.687 338.218 678.582 371.19 641.545 404.223 C 638.299 407.086 633.289 407.293 629.781 404.893 C 627.116 402.628 626.148 398.949 624.997 395.685 C 614.861 362.64 604.406 329.691 594.441 296.586 C 592.767 291.701 593.541 284.673 598.791 282.809 Z" style="fill: url(#gradient-10);" transform="matrix(0.965926, -0.258819, 0.258819, 0.965926, -66.152076, 186.336584)" bx:origin="0.5 0.5"/>
  <path d="M 418.299 466.481 C 420.173 466.218 422.125 466.229 424.012 466.557 C 427.437 469.798 428.291 474.277 429.959 478.262 C 444.633 516.52 459.37 554.756 474.03 593.014 C 476.137 598.938 479.395 604.685 479.809 610.938 C 480.145 617.727 476.021 624.395 469.44 628.249 C 428.589 653.127 387.698 677.971 346.91 702.936 C 341.779 705.827 337.125 709.363 331.63 711.782 C 329.652 712.835 327.299 712.036 325.439 711.214 C 325.114 708.409 325.514 705.587 326.395 702.904 C 354.629 628.512 383.134 554.187 411.77 479.904 C 413.695 475.372 414.536 470.27 418.299 466.481 Z" style="fill: url(#gradient-7);" transform="matrix(0.939694, -0.342017, 0.342017, 0.939694, -177.347172, 173.258527)" bx:origin="0.5 0.5"/>
  <path d="M 583.441 407.069 C 585.176 406.717 586.982 406.706 588.752 406.966 C 592.184 410.911 593.007 416.167 594.768 420.871 C 620.169 494.619 645.491 568.392 670.555 642.231 C 672.59 648.328 675.713 654.595 674.325 661.156 C 671.321 661.891 668.272 661.008 665.857 659.287 C 628.387 633.585 590.772 608.064 553.268 582.423 C 548.243 578.886 542.803 575.836 538.208 571.791 C 532.122 566.238 530.341 557.321 533.03 549.842 C 548.853 504.025 564.522 458.166 580.297 412.338 C 581.038 410.434 581.898 408.509 583.441 407.069 Z" style="fill: url(#gradient-9);" transform="matrix(0.984808, -0.173648, 0.173648, 0.984808, -83.618703, 112.831848)" bx:origin="0.5 0.5"/>
</svg>